<?xml version="1.0" standalone="no"?>
<!DOCTYPE svg PUBLIC "-//W3C//DTD SVG 20010904//EN"
 "http://www.w3.org/TR/2001/REC-SVG-20010904/DTD/svg10.dtd">
<svg version="1.0" xmlns="http://www.w3.org/2000/svg"
 width="300.000000pt" height="223.000000pt" viewBox="0 0 300.000000 223.000000"
 preserveAspectRatio="xMidYMid meet">
<g transform="translate(0.000000,223.000000) scale(0.100000,-0.100000)">
<path d="M253 2216 c3 -8 31 -101 62 -208 31 -106 58 -201 61 -210 5 -17 43
-18 611 -18 425 0 617 -3 644 -11 52 -16 108 -64 130 -113 15 -33 19 -66 19
-178 l0 -137 -618 -3 -617 -3 -84 -29 c-266 -93 -441 -323 -458 -602 -7 -116
14 -218 69 -334 33 -68 57 -100 127 -171 70 -70 103 -94 171 -127 151 -73 151
-73 773 -70 l552 3 85 31 c199 71 350 223 422 424 23 65 23 68 26 627 3 618 2
629 -58 757 -85 179 -253 317 -446 366 -73 19 -113 20 -777 20 -595 0 -698 -2
-694 -14z m1527 -1463 c0 -113 -4 -146 -19 -179 -22 -48 -82 -101 -131 -114
-20 -6 -236 -10 -521 -10 l-485 0 -55 28 c-130 66 -157 232 -56 339 71 74 52
72 695 73 l572 0 0 -137z"/>
<path d="M2460 1115 l0 -225 271 0 c213 0 270 3 266 13 -2 6 -21 71 -41 142
-20 72 -48 167 -62 213 l-25 82 -204 0 -205 0 0 -225z"/>
</g>
</svg>
